<?xml version="1.0" encoding="UTF-8" standalone="no"?>
<svg
   viewBox="0 0 37 37"
   shape-rendering="crispEdges"
   version="1.1"
   id="svg2"
   sodipodi:docname="rust-nuremberg-meetup-qrcode.svg"
   inkscape:version="1.4 (e7c3feb100, 2024-10-09)"
   xmlns:inkscape="http://www.inkscape.org/namespaces/inkscape"
   xmlns:sodipodi="http://sodipodi.sourceforge.net/DTD/sodipodi-0.dtd"
   xmlns="http://www.w3.org/2000/svg"
   xmlns:svg="http://www.w3.org/2000/svg">
  <defs
     id="defs2" />
  <sodipodi:namedview
     id="namedview2"
     pagecolor="#ffffff"
     bordercolor="#000000"
     borderopacity="0.25"
     inkscape:showpageshadow="2"
     inkscape:pageopacity="0.0"
     inkscape:pagecheckerboard="0"
     inkscape:deskcolor="#d1d1d1"
     inkscape:zoom="33.027027"
     inkscape:cx="18.5"
     inkscape:cy="18.5"
     inkscape:window-width="2597"
     inkscape:window-height="1466"
     inkscape:window-x="0"
     inkscape:window-y="0"
     inkscape:window-maximized="1"
     inkscape:current-layer="svg2" />
  <path
     stroke="#000000"
     d="M4 4.5h7m2 0h4m1 0h1m1 0h4m2 0h7M4 5.5h1m5 0h1m3 0h2m1 0h1m1 0h3m2 0h1m1 0h1m5 0h1M4 6.5h1m1 0h3m1 0h1m1 0h3m5 0h1m3 0h1m1 0h1m1 0h3m1 0h1M4 7.5h1m1 0h3m1 0h1m1 0h4m1 0h2m2 0h1m1 0h1m2 0h1m1 0h3m1 0h1M4 8.5h1m1 0h3m1 0h1m1 0h2m3 0h1m2 0h1m1 0h3m1 0h1m1 0h3m1 0h1M4 9.5h1m5 0h1m1 0h2m1 0h2m2 0h1m4 0h1m1 0h1m5 0h1M4 10.5h7m1 0h1m1 0h1m1 0h1m1 0h1m1 0h1m1 0h1m1 0h1m1 0h7M12 11.5h1m1 0h1m3 0h1m1 0h1m1 0h3M4 12.5h1m1 0h5m5 0h3m2 0h1m1 0h1m2 0h5M4 13.5h3m5 0h1m1 0h2m2 0h1m1 0h1m1 0h7m3 0h1M4 14.5h1m1 0h1m2 0h2m1 0h1m1 0h4m1 0h2m3 0h1m1 0h1M4 15.5h5m2 0h1m1 0h2m1 0h1m1 0h3m2 0h1m3 0h1m1 0h1m1 0h1M4 16.5h2m1 0h11m3 0h2m6 0h2M6 17.5h2m1 0h1m1 0h3m2 0h2m3 0h6m1 0h1m3 0h1M4 18.5h5m1 0h2m1 0h2m2 0h3m7 0h1m1 0h2M4 19.5h4m1 0h1m3 0h2m1 0h1m1 0h3m2 0h2m2 0h2m2 0h1M4 20.5h2m1 0h1m2 0h2m1 0h2m4 0h3m1 0h1m3 0h1m1 0h2M4 21.5h4m1 0h1m3 0h2m2 0h1m2 0h1m1 0h2m1 0h4m1 0h1m1 0h1M4 22.5h1m3 0h1m1 0h3m2 0h6m6 0h1m2 0h1M4 23.5h1m1 0h2m3 0h1m1 0h1m2 0h2m4 0h1m4 0h2m2 0h1M4 24.5h1m1 0h1m1 0h4m1 0h1m1 0h2m1 0h4m2 0h5m1 0h3M12 25.5h5m3 0h1m1 0h3m3 0h5M4 26.5h7m2 0h3m3 0h2m2 0h2m1 0h1m1 0h3M4 27.5h1m5 0h1m1 0h1m1 0h1m3 0h3m2 0h2m3 0h1m2 0h1M4 28.5h1m1 0h3m1 0h1m1 0h1m1 0h1m1 0h1m2 0h4m1 0h5m1 0h3M4 29.5h1m1 0h3m1 0h1m1 0h3m1 0h1m1 0h1m1 0h4m3 0h1m1 0h4M4 30.5h1m1 0h3m1 0h1m1 0h2m1 0h1m1 0h3m1 0h1m1 0h1m2 0h6M4 31.5h1m5 0h1m3 0h1m2 0h2m4 0h2m2 0h1m1 0h1m1 0h1M4 32.5h7m1 0h1m4 0h5m1 0h1m1 0h1m1 0h4"
     id="path2" />
</svg>
