<?xml version="1.0" encoding="UTF-8" standalone="no"?>
<!-- Created with Inkscape (http://www.inkscape.org/) -->

<svg
   width="512"
   height="512"
   viewBox="0 0 512 512"
   version="1.1"
   id="svg1"
   inkscape:version="1.4 (e7c3feb100, 2024-10-09)"
   sodipodi:docname="tokio-horizontal.svg"
   xmlns:inkscape="http://www.inkscape.org/namespaces/inkscape"
   xmlns:sodipodi="http://sodipodi.sourceforge.net/DTD/sodipodi-0.dtd"
   xmlns="http://www.w3.org/2000/svg"
   xmlns:svg="http://www.w3.org/2000/svg">
  <sodipodi:namedview
     id="namedview1"
     pagecolor="#ffffff"
     bordercolor="#000000"
     borderopacity="0.25"
     inkscape:showpageshadow="2"
     inkscape:pageopacity="0.0"
     inkscape:pagecheckerboard="0"
     inkscape:deskcolor="#d1d1d1"
     inkscape:document-units="px"
     inkscape:zoom="1.7265625"
     inkscape:cx="256.28959"
     inkscape:cy="256"
     inkscape:window-width="2597"
     inkscape:window-height="1466"
     inkscape:window-x="0"
     inkscape:window-y="0"
     inkscape:window-maximized="1"
     inkscape:current-layer="layer1"
     showgrid="false" />
  <defs
     id="defs1" />
  <g
     inkscape:label="Ebene 1"
     inkscape:groupmode="layer"
     id="layer1">
    <path
       d="m 102.9979,358.10863 c 6.85805,0 12.41719,-5.55996 12.41719,-12.41801 0,-6.85807 -5.55914,-12.41721 -12.41719,-12.41721 -6.858077,0 -12.41803,5.55914 -12.41803,12.41721 0,6.85805 5.559953,12.41801 12.41803,12.41801 z"
       fill="white"
       id="path6"
       style="fill:#eb5b20;stroke-width:8.11316;fill-opacity:1" />
    <path
       d="m 256.39517,422.38358 c -7.30428,0 -12.41801,5.8431 -12.41801,12.41719 0,7.30509 5.84391,12.41803 12.41801,12.41803 7.30427,0 12.41721,-5.84393 12.41721,-12.41803 0,-7.30428 -5.84312,-12.41719 -12.41721,-12.41719 z"
       fill="white"
       id="path7"
       style="fill:#eb5b20;stroke-width:8.11316;fill-opacity:1" />
    <path
       d="m 256.39517,90.034803 c 7.30427,0 12.41721,-5.84357 12.41721,-12.4176 0,-6.57402 -5.84312,-13.148027 -12.41721,-13.148027 -7.30428,0 -12.41801,5.843577 -12.41801,12.417607 0,6.57401 5.11373,13.14802 12.41801,13.14802 z"
       fill="white"
       id="path8"
       style="fill:#eb5b20;stroke-width:8.11316;fill-opacity:1" />
    <path
       d="m 409.78433,179.15162 c 7.30509,0 12.41801,-5.84391 12.41801,-12.418 0,-6.5741 -5.84391,-12.41722 -12.41801,-12.41722 -6.57328,0 -12.41719,5.84312 -12.41719,12.41722 0,6.57409 5.11291,12.418 12.41719,12.418 z"
       fill="white"
       id="path9"
       style="fill:#eb5b20;stroke-width:8.11316;fill-opacity:1" />
    <path
       d="m 102.9979,179.14514 c 7.30427,0 12.41719,-5.84393 12.41719,-12.41802 0,-6.5741 -5.11292,-13.14738 -12.41719,-13.14738 -7.305116,0 -12.41803,5.8431 -12.41803,12.41719 0,6.5741 5.112914,13.14821 12.41803,13.14821 z"
       fill="white"
       id="path10"
       style="fill:#eb5b20;stroke-width:8.11316;fill-opacity:1" />
    <path
       d="m 409.78433,358.10863 c 6.85805,0 12.41801,-5.55996 12.41801,-12.41801 0,-6.85807 -5.55996,-12.41721 -12.41801,-12.41721 -6.85805,0 -12.41719,5.55914 -12.41719,12.41721 0,6.85805 5.55914,12.41801 12.41719,12.41801 z"
       fill="white"
       id="path11"
       style="fill:#eb5b20;stroke-width:8.11316;fill-opacity:1" />
    <path
       d="m 256.39517,243.42657 c -7.30428,0 -12.41801,5.8431 -12.41801,12.4172 0,6.57411 5.84391,12.41802 12.41801,12.41802 7.30427,0 12.41721,-5.84391 12.41721,-12.41802 0,-6.5741 -5.84312,-12.4172 -12.41721,-12.4172 z"
       fill="white"
       id="path12"
       style="fill:#eb5b20;stroke-width:8.11316;fill-opacity:1" />
    <path
       d="M 503.27967,247.80849 H 341.12098 340.3908 c -0.731,-8.76546 -2.92238,-17.53094 -6.57412,-25.5654 l 50.40062,-29.21795 7.30428,-4.38273 -8.76546,-14.60939 -7.30428,4.38275 -49.67043,29.21795 c -5.8431,-8.03448 -13.14819,-15.33958 -21.91367,-21.18267 l 1.46118,-2.19137 81.80993,-140.245764 4.38273,-7.304445 -14.60855,-8.765376 -4.38273,7.304445 -81.80994,139.51548 -1.46118,2.19136 c -8.0353,-2.92236 -16.06976,-5.11372 -24.83522,-6.57409 v -56.24453 -8.03497 h -16.79994 v 8.03497 56.24453 c -8.76546,0.73018 -17.53094,2.92155 -24.83522,6.57409 l -2.19136,-2.19136 -81.07975,-139.51548 -4.38273,-7.304445 -14.60858,8.765376 4.38275,7.304445 81.07894,139.515584 1.46118,2.19055 c -8.0353,5.84391 -15.33958,13.14819 -21.18268,21.18349 l -49.67043,-29.21795 -7.30428,-4.38275 -8.76548,14.60857 7.3043,4.38273 50.40062,29.21795 c -3.65176,8.03528 -5.84312,16.80076 -6.57412,25.56541 H 170.927 9.4984123 0.73303615 v 16.80075 H 9.4984123 170.927 h 0.73018 c 0.731,8.76546 2.92236,17.53092 6.57412,25.5654 l -50.40062,29.21795 -7.3043,4.38273 8.76548,14.60856 7.30428,-4.38273 49.67043,-29.21714 c 5.11292,7.30428 10.95683,13.1474 17.53013,18.26113 l -2.19138,2.92155 -80.34876,140.97601 -4.38273,7.30428 14.60939,8.76548 4.38273,-7.30428 81.07894,-139.51567 1.46118,-2.92155 c 8.76546,4.38273 18.26113,7.3043 29.21795,8.0353 v 55.51354 8.76546 h 16.79994 v -8.76546 -55.51354 c 10.95683,-0.731 20.45249,-4.38275 29.94813,-8.76548 l 1.46119,2.19137 81.80993,140.24503 4.38273,7.3051 14.60858,-8.76548 -4.38275,-7.30428 -81.07894,-139.51565 -1.46118,-2.92155 c 6.57411,-5.11291 12.41802,-10.95682 16.79994,-17.53094 l 49.67044,29.21795 7.30509,4.38273 8.76465,-14.60856 -7.30428,-4.38273 -50.40062,-29.21795 c 3.65254,-8.03529 5.84393,-16.80075 6.57411,-25.5654 h 0.73019 161.4285 8.76546 v -17.53094 z m -246.89019,75.23584 c -37.25322,0 -67.20136,-29.94813 -67.20136,-67.20138 0,-37.25241 29.94814,-67.20054 67.20136,-67.20054 37.25243,0 67.20056,29.94813 67.20056,67.20054 0,37.25325 -30.67831,67.20138 -67.20056,67.20138 z"
       fill="white"
       id="path13"
       style="fill:#000000;stroke-width:8.11316;fill-opacity:1" />
  </g>
</svg>
